<?xml version="1.0" encoding="UTF-8" standalone="no" ?>
<!DOCTYPE svg PUBLIC "-//W3C//DTD SVG 1.1//EN" "http://www.w3.org/Graphics/SVG/1.1/DTD/svg11.dtd">
<svg xmlns="http://www.w3.org/2000/svg" xmlns:xlink="http://www.w3.org/1999/xlink" version="1.1" width="1280" height="1024" viewBox="0 0 1280 1024" xml:space="preserve">
<desc>Created with Fabric.js 4.4.0</desc>
<defs>
</defs>
<g transform="matrix(1 0 0 1 640 512)" id="background-logo"  >
<rect style="stroke: none; stroke-width: 0; stroke-dasharray: none; stroke-linecap: butt; stroke-dashoffset: 0; stroke-linejoin: miter; stroke-miterlimit: 4; fill: rgb(255,255,255); fill-opacity: 0; fill-rule: nonzero; opacity: 1;"  paint-order="stroke"  x="-640" y="-512" rx="0" ry="0" width="1280" height="1024" />
</g>
<g transform="matrix(2.3518146755693023 0 0 2.3518146755693023 654.1853610361184 419.26127152032547)" id="logo-logo"  >
<g style=""  paint-order="stroke"   >
		<g transform="matrix(0.8055756204397018 0 0 0.8055756204397019 5.642246716189277 4.370693244392015)"  >
<linearGradient id="SVGID_5_5_5_205206" gradientUnits="userSpaceOnUse" gradientTransform="matrix(1 0 0 1 74.03887435073881 69.00185270961168)"  x1="0" y1="0" x2="0" y2="35">
<stop offset="0%" style="stop-color:rgb(66,230,149);stop-opacity: 1"/>
<stop offset="100%" style="stop-color:rgb(59,178,184);stop-opacity: 1"/>
</linearGradient>
<path style="stroke: none; stroke-width: 1; stroke-dasharray: none; stroke-linecap: butt; stroke-dashoffset: 0; stroke-linejoin: miter; stroke-miterlimit: 4; fill: url(#SVGID_5_5_5_205206); fill-rule: nonzero; opacity: 1;"  paint-order="stroke"  transform=" translate(-157.00399485961216, -150.56516120159154)" d="M 232.9468384 155.2446442 C 230.1007233 152.833191 228.3598786 149.46958930000002 228.04690549999998 145.7566529 C 227.73356629999998 142.0437775 228.88789369999998 138.43193060000002 231.29029839999998 135.57954410000002 C 231.5607604 135.26115420000002 231.8468475 134.9477539 232.14497369999998 134.65554810000003 L 224.34651179999997 110.12187960000003 C 220.92430109999998 115.75646970000003 217.07714839999997 121.62008670000003 212.88290399999997 127.62939460000003 L 221.68144219999996 155.32226570000003 C 221.93061819999997 156.13162240000003 221.49128719999996 156.99107370000004 220.68322749999996 157.24800120000003 C 220.61657709999997 157.26736460000004 220.54898069999996 157.27914440000004 220.48138419999995 157.29090890000003 C 219.74406429999996 157.41928110000003 219.00279229999995 156.99021920000004 218.76504509999995 156.24865730000005 L 210.66940299999996 130.76670840000006 C 206.90095509999995 136.05845640000007 202.89073169999995 141.43110660000005 198.67434679999997 146.82408140000007 L 208.05215439999998 176.33088680000006 C 211.423477 176.19349670000005 214.4554442 178.55711360000006 215.0501555 181.97293090000005 C 215.6959685 185.68218990000005 213.2117156 189.22325130000004 209.49459819999998 189.87042240000005 C 205.78558329999998 190.51618960000005 202.2507322 188.02310180000006 201.60493449999998 184.31384280000006 C 201.08749369999998 181.34190370000005 202.58216839999997 178.48478700000007 205.09878519999998 177.13191230000007 L 196.38915999999998 149.72584540000008 C 192.2060393 154.99678050000009 187.83953839999998 160.2841645000001 183.34622179999997 165.5083314000001 L 185.69619739999996 172.9053804000001 C 185.95307909999997 173.7133485000001 185.50602709999995 174.5741426000001 184.69667039999996 174.82359330000008 C 184.63169849999997 174.85037250000008 184.56373579999996 174.8622133000001 184.49612409999995 174.8739778000001 C 183.75880419999996 175.0023500000001 183.01623519999995 174.56576550000008 182.77980019999995 173.83174150000008 L 180.99649029999995 168.21974200000008 C 177.17250039999996 172.61419700000008 173.25407389999995 176.9553530000001 169.28077679999996 181.2052462000001 L 178.44862349999997 210.0431521000001 C 181.82034289999996 209.9057467000001 184.85192859999998 212.2693789000001 185.44665509999996 215.6852419000001 C 186.09376509999996 219.4020388000001 183.60819989999996 222.9355623000001 179.89146409999995 223.5826723000001 C 176.18206769999995 224.2285005000001 172.64854419999995 221.7429354000001 172.00141889999995 218.0261537000001 C 171.48399339999995 215.05421460000008 172.97901899999994 212.19703690000009 175.49526959999994 210.8441774000001 L 166.88847329999993 183.76130690000008 C 165.79579139999993 184.92053240000007 164.70179729999992 186.07223520000008 163.59747289999993 187.2102663000001 C 157.91860939999992 193.1059877000001 151.47834749999993 199.48306290000008 144.53126499999993 205.8863985000001 C 145.48001069999992 206.8374941000001 146.15303009999994 208.0769045000001 146.40193149999993 209.5064547000001 C 147.04904149999993 213.22325160000008 144.56349159999994 216.75677510000008 140.85409519999993 217.4026034000001 C 138.30375649999993 217.8466342000001 135.84551979999992 216.8172610000001 134.33734099999992 214.92478970000008 C 131.55100979999992 217.30914330000007 128.70559659999992 219.6649783000001 125.81186649999992 221.96725490000009 L 169.4624020999999 231.5379641000001 C 178.2966916999999 233.48045370000008 187.4852291999999 230.5550845000001 193.5777432999999 223.8741763000001 L 233.35763529999988 180.2661288000001 C 238.8059689999999 174.2942507000001 241.0357968999999 166.1308596000001 239.4891354999999 158.3148806000001 C 237.1055603 157.8926544 234.8453827 156.8443146 232.9468384 155.2446442 z M 202.2038269 82.2328949 L 144.545517 69.5894165 C 135.71217349999998 67.6545105 126.52269749999999 70.5722961 120.43017579999999 77.2531967 L 80.65160369999998 120.8687744 C 75.20289609999998 126.84072110000001 72.96703339999998 135.01292420000001 74.52272029999997 142.835083 C 79.58986659999998 146.4722595 84.04016109999998 148.9687195 84.30750269999997 149.1237335 C 84.03477469999997 149.07043449999998 80.44744869999997 148.3694153 75.63430779999997 146.858612 L 93.10571279999998 201.83992 C 94.04634849999998 204.7924499 95.49363699999998 207.4939422 97.35356889999997 209.8523101 C 102.40148149999997 206.6090545 107.07807149999996 203.28320300000001 111.20711499999997 200.23873890000002 C 117.49941999999997 195.50753770000003 123.80204759999998 190.43347160000002 130.19715859999997 184.9557494 L 116.87911969999996 143.0574492 C 116.62355019999995 142.25700360000002 117.06324749999996 141.3974913 117.87092569999996 141.1405791 C 118.66261269999995 140.878723 119.53222639999996 141.3319548 119.78780339999996 142.1324309 L 132.70146149999997 182.7755431 C 141.16964689999998 175.4019164 149.80918859999997 167.2775878 158.78285189999997 158.2656096 L 142.13594029999996 105.8849104 C 141.88035559999997 105.0844267 142.32740759999996 104.2236403 143.13546729999996 103.9667051 C 143.92806979999995 103.7124098 144.79640169999996 104.1581419 145.05232219999996 104.9585188 L 161.21591169999996 155.8110045 C 165.10852029999995 151.8541716 169.07264689999997 147.7298888 173.11172469999997 143.414276 L 158.27889999999996 96.7332381 C 154.90756209999998 96.8705901 151.87596119999998 94.50690449999999 151.28124989999998 91.09108719999999 C 150.63412469999997 87.374298 153.11968979999997 83.84077439999999 156.83644089999999 83.19366439999999 C 160.5454711 82.5478972 164.0789946 85.03346239999999 164.72610459999999 88.75025159999998 C 165.2435454 91.72218309999998 163.7488707 94.57929209999999 161.2326201 95.93211349999999 L 175.5100707 140.84941089999998 C 177.679428 138.52597029999998 179.8680572 136.1371917 182.0802764 133.70550529999997 C 184.4615783 131.04281609999998 186.7147674 128.48776239999998 188.8562469 126.00636279999998 L 185.01622 113.92304219999997 C 184.7602843 113.12261949999997 185.1999816 112.26311479999997 186.008026 112.00617209999997 C 186.7993315 111.74434649999998 187.6689604 112.19760889999998 187.9248961 112.99798579999997 L 191.1956328 123.28123469999997 C 195.7772215 117.89441679999997 199.8141783 112.89700309999998 203.4567412 108.08450309999998 L 202.63058460000002 105.47641749999998 C 199.25923150000003 105.61376949999999 196.2263335 103.24259939999999 195.63291920000003 99.83426659999998 C 194.98580920000003 96.11747739999998 197.47137440000003 92.58395379999997 201.18040460000003 91.93818659999998 C 204.89714040000004 91.29107659999998 208.43066400000004 93.77664179999998 209.07778920000004 97.49343099999999 C 209.26773060000005 98.58439629999998 209.18547050000004 99.66849509999999 208.87870780000003 100.66761009999999 C 210.01460260000002 99.04351799999999 211.12168880000002 97.43215169999999 212.19091790000002 95.8273696 C 213.1793212 94.29098499999999 214.4109649 92.3711089 215.73625180000002 90.1868667 C 212.2422791 86.2370529 207.5323639 83.4059525 202.2038269 82.2328949 z M 110.2430267 184.3290863 C 110.1767425 184.3483887 110.1104507 184.367691 110.0428543 184.3794556 C 109.3051681 184.5078888 108.5625915 184.0713044 108.3261566 183.3372803 L 94.3889236 139.484787 C 91.0249252 139.6208496 87.98468009999999 137.2509613 87.3912658 133.84263610000002 C 86.7441482 130.12585450000003 89.2297134 126.59232330000002 92.94645679999999 125.94521330000002 C 96.6558532 125.29937740000003 100.1893767 127.78494260000002 100.8364943 131.5017395 C 101.3539275 134.47366330000003 99.8653029 137.3220062 97.341339 138.67617800000002 L 111.24255360000001 182.4108734 C 111.4981232 183.2113647 111.0510788 184.0721436 110.2430267 184.3290863 z M 143.0680389 164.8000793 C 143.00138850000002 164.8194427 142.9337921 164.8312225 142.8658294 164.8430481 C 142.1211547 164.972702 141.3872375 164.5423584 141.1498718 163.8007355 L 123.4095611 107.9902191 C 120.037857 108.12767790000001 117.004959 105.7565079 116.41154470000001 102.34818270000001 C 115.7644271 98.63139350000002 118.2499923 95.0978623 121.9667357 94.4507523 C 125.6761321 93.80492410000001 129.2096556 96.29048920000001 129.8567809 100.00727850000001 C 130.3742064 102.97921000000001 128.8868865 105.83504490000001 126.36292259999999 107.18920140000002 L 144.05854789999998 162.87568670000002 C 144.3154297 163.6837006 143.8757324 164.5432129 143.0680389 164.8000793 z" stroke-linecap="round" />
</g>
		<g transform="matrix(0.8055756204397018 0 0 0.8055756204397019 -14.204504009329867 0)"  >
<linearGradient id="SVGID_6_6_6_205207" gradientUnits="userSpaceOnUse" gradientTransform="matrix(1 0 0 1 27.529535987779994 40.12146493639841)"  x1="0" y1="0" x2="0" y2="35">
<stop offset="0%" style="stop-color:rgb(66,230,149);stop-opacity: 1"/>
<stop offset="100%" style="stop-color:rgb(59,178,184);stop-opacity: 1"/>
</linearGradient>
<path style="stroke: none; stroke-width: 1; stroke-dasharray: none; stroke-linecap: butt; stroke-dashoffset: 0; stroke-linejoin: miter; stroke-miterlimit: 4; fill: url(#SVGID_6_6_6_205207); fill-rule: nonzero; opacity: 1;"  paint-order="stroke"  transform=" translate(-132.3672627863571, -145.13960817653054)" d="M 235.1642609 52.7745934 C 227.350113 35.359882400000004 201.27879339999998 37.8418084 188.94703679999998 48.6628876 C 218.52236939999997 32.1362763 272.7674866 57.229183199999994 163.37944039999996 159.0543518 C 147.71145639999997 174.9299774 131.17681889999997 190.01077270000002 113.50350199999997 203.2885895 C 101.00027479999997 212.4900513 87.39170849999996 221.4019318 72.99557509999997 226.54032899999999 C 67.12265789999996 228.5821839 59.98475659999997 230.26974489999998 54.43954099999996 228.97396849999998 C 49.92785279999996 227.64666749999998 49.331703299999965 225.3965912 48.99052059999996 220.56291199999998 C 49.33194739999996 210.4950409 53.86912549999996 201.1051331 59.54365549999996 192.4996033 C 59.921226599999954 191.89633179999998 60.30397809999996 191.32934569999998 60.71957409999996 190.7379608 C 61.85711679999996 188.6493683 62.31643309999996 186.17852779999998 61.88107689999996 183.6780243 C 61.71120839999996 182.7023773 61.40600209999996 181.78637700000002 61.00811009999996 180.92938230000001 C 61.85905839999996 182.31452940000003 62.47554779999996 183.8748779 62.77131279999996 185.57362360000002 C 63.084514699999964 187.37252800000002 63.02202999999996 189.14419550000002 62.62569049999996 190.8071136 C 72.37922669999996 188.163681 78.69599919999996 178.4640808 76.92642219999996 168.30030820000002 C 75.05035409999996 157.52493280000002 64.78649149999995 150.30429070000002 54.01062019999996 152.1804504 C 43.235111299999964 154.0565338 36.01554879999996 164.3211517 37.89161309999996 175.0965271 C 38.18288049999996 176.769455 38.67932139999996 178.351181 39.324665199999956 179.8141937 C 39.35054789999995 179.7541351 39.398639799999955 179.7086181 39.427642999999954 179.6664734 C 41.352920699999956 177.1999207 44.17297759999995 175.4114838 47.50177019999995 174.8319092 C 48.36363619999995 174.68185430000003 49.21960089999995 174.62400820000002 50.06148169999995 174.64179990000002 C 49.77133579999995 174.66889950000004 49.48040409999995 174.69796750000003 49.18797319999995 174.74888610000002 C 46.417587499999954 175.23123170000002 44.080886999999954 176.71308900000002 42.47488419999995 178.7720337 C 42.120781099999945 179.2970429 41.78228009999995 179.800766 41.43241519999995 180.34358220000001 C 31.333669899999954 196.0507355 23.12698189999995 216.2117157 30.158228099999953 233.16043100000002 C 29.017288399999952 227.6378175 28.67151849999995 221.96904 29.35121939999995 216.32682810000003 C 30.859512599999952 203.26266490000003 37.08496879999995 190.93846140000002 46.302868099999955 181.65530410000002 C 33.21884559999995 195.81481950000003 27.225855099999954 216.78979510000002 33.173118799999955 235.38252270000004 C 33.827835299999954 237.50157180000005 34.606105999999954 239.57804880000003 35.482677699999954 241.61256420000004 C 44.65709329999996 251.25672920000002 59.301445199999954 251.54637160000004 71.80619069999995 248.29087840000003 C 128.52104209999993 217.76797500000004 178.87664819999995 170.1623384 212.16516899999993 114.98477180000003 C 185.03629329999993 162.12777720000003 145.70346859999995 204.07940680000002 100.41848779999994 235.20202640000002 C 147.21735409999994 206.60902410000003 200.47582269999992 144.00946050000002 224.04587579999992 103.14042670000003 C 231.4592743 89.3019714 241.585495 68.5784378 235.1642609 52.7745934 z" stroke-linecap="round" />
</g>
		<g transform="matrix(0.8055756204397018 0 0 0.8055756204397019 -64.06481856932339 -19.136330055227177)"  >
<linearGradient id="SVGID_7_7_7_205208" gradientUnits="userSpaceOnUse" gradientTransform="matrix(1 0 0 1 44.81053489749983 95.3477888180897)"  x1="0" y1="0" x2="0" y2="35">
<stop offset="0%" style="stop-color:rgb(66,230,149);stop-opacity: 1"/>
<stop offset="100%" style="stop-color:rgb(59,178,184);stop-opacity: 1"/>
</linearGradient>
<path style="stroke: none; stroke-width: 1; stroke-dasharray: none; stroke-linecap: butt; stroke-dashoffset: 0; stroke-linejoin: miter; stroke-miterlimit: 4; fill: url(#SVGID_7_7_7_205208); fill-rule: nonzero; opacity: 1;"  paint-order="stroke"  transform=" translate(-70.47324154874991, -121.38475565904486)" d="M 46.8283539 108.5079575 C 53.3660774 96.7037888 80.7889328 92.5011826 96.1359482 97.2842179 C 95.6083603 97.7806626 95.1025391 98.3118287 94.6163712 98.86261760000001 L 93.8974839 99.67536940000001 C 91.6114426 95.80075090000001 61.846355499999994 95.8651887 51.481090599999995 105.6255952 C 58.053047199999995 99.9397813 85.8146592 94.46305090000001 92.22184759999999 101.5697633 L 91.34545909999999 102.56077590000001 C 86.90735639999998 97.8024065 50.05487449999998 99.56751270000001 48.42488489999999 115.0252992 C 46.88665019999999 129.6129762 71.54330449999999 143.1295167 80.14150249999999 147.42172250000002 C 48.8465195 136.3934021 40.3783264 120.1537857 46.8283539 108.5079575 z" stroke-linecap="round" />
</g>
		<g transform="matrix(0.8055756204397018 0 0 0.8055756204397019 82.66526643940574 -16.08692637961991)"  >
<linearGradient id="SVGID_8_8_8_205209" gradientUnits="userSpaceOnUse" gradientTransform="matrix(1 0 0 1 232.76232690636607 96.54314496973655)"  x1="0" y1="0" x2="0" y2="35">
<stop offset="0%" style="stop-color:rgb(66,230,149);stop-opacity: 1"/>
<stop offset="100%" style="stop-color:rgb(59,178,184);stop-opacity: 1"/>
</linearGradient>
<path style="stroke: none; stroke-width: 1; stroke-dasharray: none; stroke-linecap: butt; stroke-dashoffset: 0; stroke-linejoin: miter; stroke-miterlimit: 4; fill: url(#SVGID_8_8_8_205209); fill-rule: nonzero; opacity: 1;"  paint-order="stroke"  transform=" translate(-252.61639643797122, -125.17012800427895)" d="M 249.3850708 151.4401093 C 251.3358307 149.8120423 252.521759 147.6105805 252.8940735 145.2933503 C 252.9712219 144.8148042 253.00135799999998 144.33103949999997 253.01026919999998 143.84620669999998 C 254.97444159999998 142.99345399999999 256.859375 142.0213776 258.76593019999996 140.89988709999997 C 265.08261109999995 137.08741759999998 271.3051758 131.24273679999996 272.3279418999999 123.36631779999998 C 273.6993102999999 112.17613989999998 264.9747924999999 101.89383699999998 254.74398799999992 98.70579529999998 C 248.28585809999993 96.52553559999998 241.52430719999992 96.13597109999998 235.02740469999992 96.90663149999997 C 246.93753039999993 97.29900359999998 261.53057849999993 101.73243719999998 265.4269407999999 114.20708469999997 C 269.5234678999999 125.48538979999996 259.1564939999999 132.15693669999996 249.5693357999999 135.14179999999996 C 249.8308561999999 135.39265449999996 250.0769651999999 135.65629579999995 250.31411729999988 135.94046029999996 C 251.35830679999987 137.19160469999994 252.03640729999987 138.62539679999995 252.38354479999987 140.11466989999997 C 251.99488819999988 139.07191479999997 251.43087759999986 138.07594309999996 250.67874129999987 137.17471319999996 C 250.44158919999987 136.89056399999996 250.19548019999988 136.62692269999997 249.93394449999988 136.37606819999996 C 246.25672889999987 132.81307989999996 240.4147794999999 132.54202279999996 236.4056088999999 135.88797009999996 C 232.1050717999999 139.47709669999995 231.52937289999988 145.85992439999995 235.1187283999999 150.16073619999997 C 238.7017212 154.4539185 245.0845337 155.0292358 249.3850708 151.4401093 z" stroke-linecap="round" />
</g>
</g>
</g>
<g transform="matrix(1.9211538461538462 0 0 1.9211538461538462 654.7524203622903 665.6786574641094)" id="tagline-bd40b144-fb4c-4ab5-9fb6-eb818d2dc0f3-logo"  >
<g style=""  paint-order="stroke"   >
		<g transform="matrix(1 0 0 1 0 0)" id="tagline-bd40b144-fb4c-4ab5-9fb6-eb818d2dc0f3-logo-path-0"  >
<linearGradient id="SVGID_205210" gradientUnits="userSpaceOnUse" gradientTransform="matrix(1 0 0 1 1.5999999999999943 -22.01)"  x1="0" y1="0" x2="0" y2="35">
<stop offset="0%" style="stop-color:rgb(66,230,149);stop-opacity: 1"/>
<stop offset="100%" style="stop-color:rgb(59,178,184);stop-opacity: 1"/>
</linearGradient>
<path style="stroke: rgb(255,255,255); stroke-width: 0; stroke-dasharray: none; stroke-linecap: butt; stroke-dashoffset: 0; stroke-linejoin: miter; stroke-miterlimit: 4; fill: url(#SVGID_205210); fill-rule: nonzero; opacity: 1;"  paint-order="stroke"  transform=" translate(-108.02, 9.33)" d="M 1.6 -8.78 L 1.6 -8.78 L 1.6 -12.93 Q 1.6 -14.89 2.29 -16.57 Q 2.98 -18.24 4.19 -19.44 Q 5.4 -20.65 7.07 -21.33 Q 8.73 -22.01 10.69 -22.01 L 10.69 -22.01 L 16.01 -22.01 Q 17.97 -22.01 19.62 -21.33 Q 21.28 -20.65 22.49 -19.44 Q 23.7 -18.24 24.39 -16.57 Q 25.07 -14.89 25.07 -12.93 L 25.07 -12.93 L 25.07 -8.78 Q 25.07 -7.27 24.67 -5.93 Q 24.26 -4.59 23.53 -3.5 Q 22.8 -2.41 21.76 -1.59 Q 20.72 -0.77 19.45 -0.3 L 19.45 -0.3 L 24.05 3.35 L 18.35 3.35 L 14.56 0.3 L 10.69 0.3 Q 8.73 0.3 7.07 -0.37 Q 5.4 -1.04 4.19 -2.26 Q 2.98 -3.47 2.29 -5.13 Q 1.6 -6.8 1.6 -8.78 Z M 5.54 -12.93 L 5.54 -8.78 Q 5.54 -7.61 5.91 -6.67 Q 6.28 -5.72 6.96 -5.05 Q 7.64 -4.37 8.59 -4 Q 9.54 -3.63 10.69 -3.63 L 10.69 -3.63 L 15.98 -3.63 Q 17.13 -3.63 18.08 -4 Q 19.03 -4.37 19.71 -5.05 Q 20.39 -5.72 20.76 -6.67 Q 21.13 -7.61 21.13 -8.78 L 21.13 -8.78 L 21.13 -12.93 Q 21.13 -14.09 20.76 -15.04 Q 20.39 -15.98 19.72 -16.66 Q 19.04 -17.33 18.1 -17.7 Q 17.15 -18.07 16.01 -18.07 L 16.01 -18.07 L 10.69 -18.07 Q 9.54 -18.07 8.59 -17.7 Q 7.64 -17.33 6.96 -16.66 Q 6.28 -15.98 5.91 -15.04 Q 5.54 -14.09 5.54 -12.93 L 5.54 -12.93 Z M 35.49 -10.85 L 35.49 -10.85 L 35.49 -21.71 L 39.43 -21.71 L 39.43 -10.85 Q 39.43 -9.19 39.89 -8.04 Q 40.35 -6.89 41.06 -6.12 Q 41.77 -5.34 42.62 -4.9 Q 43.47 -4.47 44.23 -4.25 Q 45 -4.04 45.58 -3.99 Q 46.16 -3.94 46.35 -3.94 L 46.35 -3.94 L 53.26 -3.94 L 53.26 -21.71 L 57.2 -21.71 L 57.2 -1.98 Q 57.2 -1.56 57.05 -1.2 Q 56.9 -0.83 56.62 -0.57 Q 56.35 -0.3 55.99 -0.15 Q 55.62 0 55.22 0 L 55.22 0 L 46.35 0 Q 45.09 0 43.8 -0.27 Q 42.52 -0.54 41.31 -1.11 Q 40.11 -1.68 39.05 -2.56 Q 37.99 -3.44 37.2 -4.64 Q 36.4 -5.84 35.95 -7.39 Q 35.49 -8.95 35.49 -10.85 Z M 72.27 0 L 68.34 0 L 68.34 -10.85 Q 68.34 -13.23 69.15 -15.23 Q 69.97 -17.23 71.42 -18.66 Q 72.88 -20.1 74.86 -20.9 Q 76.84 -21.71 79.19 -21.71 L 79.19 -21.71 L 88.06 -21.71 Q 88.47 -21.71 88.83 -21.55 Q 89.19 -21.4 89.47 -21.13 Q 89.74 -20.86 89.89 -20.5 Q 90.04 -20.13 90.04 -19.72 L 90.04 -19.72 L 90.04 0 L 86.11 0 L 86.11 -5.33 L 72.27 -5.33 L 72.27 0 Z M 72.27 -10.85 L 72.27 -9.26 L 86.11 -9.26 L 86.11 -17.77 L 79.19 -17.77 Q 79.01 -17.77 78.42 -17.72 Q 77.84 -17.66 77.08 -17.45 Q 76.31 -17.24 75.47 -16.8 Q 74.62 -16.36 73.91 -15.59 Q 73.2 -14.82 72.73 -13.66 Q 72.27 -12.5 72.27 -10.85 L 72.27 -10.85 Z M 101.59 -1.98 L 101.59 -1.98 L 101.59 -21.71 L 105.52 -21.71 L 105.52 -3.94 L 121.52 -3.94 L 121.52 0 L 103.57 0 Q 103.15 0 102.78 -0.15 Q 102.42 -0.3 102.16 -0.57 Q 101.89 -0.83 101.74 -1.2 Q 101.59 -1.56 101.59 -1.98 Z M 135.36 0 L 131.42 0 L 131.42 -21.71 L 135.36 -21.71 L 135.36 0 Z M 146.1 -15.29 L 146.1 -15.29 Q 146.1 -17.06 146.73 -18.28 Q 147.36 -19.5 148.3 -20.26 Q 149.25 -21.02 150.35 -21.37 Q 151.46 -21.71 152.41 -21.71 L 152.41 -21.71 L 165.81 -21.71 L 165.81 -17.77 L 152.41 -17.77 Q 151.29 -17.77 150.66 -17.09 Q 150.04 -16.41 150.04 -15.29 L 150.04 -15.29 Q 150.04 -14.15 150.66 -13.49 Q 151.29 -12.84 152.41 -12.84 L 152.41 -12.84 L 161.46 -12.84 L 161.49 -12.84 Q 162.13 -12.82 162.84 -12.66 Q 163.55 -12.5 164.26 -12.17 Q 164.96 -11.84 165.6 -11.33 Q 166.23 -10.82 166.72 -10.11 Q 167.22 -9.4 167.5 -8.48 Q 167.79 -7.55 167.79 -6.39 L 167.79 -6.39 Q 167.79 -5.22 167.5 -4.29 Q 167.2 -3.36 166.72 -2.65 Q 166.23 -1.94 165.58 -1.44 Q 164.93 -0.94 164.23 -0.62 Q 163.54 -0.3 162.82 -0.15 Q 162.1 0 161.46 0 L 161.46 0 L 146.28 0 L 146.28 -3.94 L 161.46 -3.94 Q 162.6 -3.94 163.23 -4.6 Q 163.85 -5.27 163.85 -6.39 L 163.85 -6.39 Q 163.85 -6.93 163.69 -7.39 Q 163.52 -7.84 163.21 -8.17 Q 162.9 -8.51 162.45 -8.69 Q 162.01 -8.87 161.46 -8.87 L 161.46 -8.87 L 152.41 -8.87 Q 151.46 -8.87 150.35 -9.21 Q 149.25 -9.55 148.3 -10.31 Q 147.36 -11.06 146.73 -12.29 Q 146.1 -13.52 146.1 -15.29 Z M 182 0 L 178.07 0 L 178.07 -21.71 L 182 -21.71 L 182 0 Z M 192.74 -15.29 L 192.74 -15.29 Q 192.74 -17.06 193.37 -18.28 Q 194 -19.5 194.95 -20.26 Q 195.89 -21.02 197 -21.37 Q 198.1 -21.71 199.06 -21.71 L 199.06 -21.71 L 212.45 -21.71 L 212.45 -17.77 L 199.06 -17.77 Q 197.94 -17.77 197.31 -17.09 Q 196.68 -16.41 196.68 -15.29 L 196.68 -15.29 Q 196.68 -14.15 197.31 -13.49 Q 197.94 -12.84 199.06 -12.84 L 199.06 -12.84 L 208.11 -12.84 L 208.14 -12.84 Q 208.77 -12.82 209.49 -12.66 Q 210.2 -12.5 210.9 -12.17 Q 211.61 -11.84 212.24 -11.33 Q 212.88 -10.82 213.37 -10.11 Q 213.86 -9.4 214.15 -8.48 Q 214.44 -7.55 214.44 -6.39 L 214.44 -6.39 Q 214.44 -5.22 214.14 -4.29 Q 213.85 -3.36 213.36 -2.65 Q 212.88 -1.94 212.23 -1.44 Q 211.57 -0.94 210.88 -0.62 Q 210.18 -0.3 209.46 -0.15 Q 208.74 0 208.11 0 L 208.11 0 L 192.93 0 L 192.93 -3.94 L 208.11 -3.94 Q 209.24 -3.94 209.87 -4.6 Q 210.5 -5.27 210.5 -6.39 L 210.5 -6.39 Q 210.5 -6.93 210.33 -7.39 Q 210.17 -7.84 209.86 -8.17 Q 209.55 -8.51 209.1 -8.69 Q 208.65 -8.87 208.11 -8.87 L 208.11 -8.87 L 199.06 -8.87 Q 198.1 -8.87 197 -9.21 Q 195.89 -9.55 194.95 -10.31 Q 194 -11.06 193.37 -12.29 Q 192.74 -13.52 192.74 -15.29 Z" stroke-linecap="round" />
</g>
</g>
</g>
</svg>